<svg xmlns="http://www.w3.org/2000/svg" width="36.103" height="36.103" viewBox="0 0 36.103 36.103">
  <path id="Path_272" data-name="Path 272" d="M30.813,5.286A18.051,18.051,0,1,0,36.1,18.048,18.051,18.051,0,0,0,30.813,5.286m-3.476,19.86,0,0v-.006l-.915.909a4.814,4.814,0,0,1-4.543,1.3,16,16,0,0,1-4.645-2.082,21.462,21.462,0,0,1-3.664-2.954,21.627,21.627,0,0,1-2.738-3.321,16.846,16.846,0,0,1-2.058-4.164,4.814,4.814,0,0,1,1.2-4.916l1.071-1.071a.764.764,0,0,1,1.081,0l0,0,3.382,3.382a.764.764,0,0,1,0,1.081l0,0-1.986,1.986a1.619,1.619,0,0,0-.168,2.106,23.223,23.223,0,0,0,2.377,2.774A23.08,23.08,0,0,0,18.863,22.8a1.631,1.631,0,0,0,2.082-.181l1.919-1.95a.764.764,0,0,1,1.081,0l0,0,3.388,3.394a.764.764,0,0,1,0,1.081" transform="translate(0 -0.001)" fill="#fff"/>
</svg>
