<svg xmlns="http://www.w3.org/2000/svg" width="62.171" height="72" viewBox="0 0 62.171 72">
  <g id="Group_228" data-name="Group 228" transform="translate(-985.257 -279.252)">
    <path id="Path_391" data-name="Path 391" d="M699.3,41.488H678.145a1.434,1.434,0,0,0,0,2.869H699.3a1.434,1.434,0,1,0,0-2.869" transform="translate(315 279)" fill="#ef5a21"/>
    <path id="Path_392" data-name="Path 392" d="M678.145,50.811h8.3a1.434,1.434,0,0,0,0-2.869h-8.3a1.434,1.434,0,1,0,0,2.869" transform="translate(315 279)" fill="#ef5a21"/>
    <path id="Path_393" data-name="Path 393" d="M694.749,54.4h-16.6a1.434,1.434,0,0,0,0,2.868h16.6a1.434,1.434,0,0,0,0-2.868" transform="translate(315 279)" fill="#ef5a21"/>
    <path id="Path_394" data-name="Path 394" d="M678.145,37.9H714a1.434,1.434,0,0,0,1.434-1.434V23.559a1.434,1.434,0,1,0-2.869,0V35.033h-5.378v-5.02a1.434,1.434,0,0,0-1.434-1.434H699.3a1.434,1.434,0,0,0-1.434,1.434v5.02h-3.585V23.559a1.434,1.434,0,0,0-1.434-1.434h-6.455a1.434,1.434,0,0,0-1.434,1.434V35.033h-6.813a1.434,1.434,0,0,0,0,2.869m22.589-6.454h3.586v3.586h-3.585Zm-12.908-6.454h3.585v10.04h-3.584Z" transform="translate(315 279)" fill="#ef5a21"/>
    <path id="Path_395" data-name="Path 395" d="M731.836,60.005l-2.279-1.679a12.325,12.325,0,0,0,0-2.911l2.282-1.679a1.434,1.434,0,0,0,.392-1.873l-3.1-5.368a1.435,1.435,0,0,0-1.818-.6l-2.6,1.137a12.2,12.2,0,0,0-2.521-1.458l-.3-2.737V14.6a1.434,1.434,0,0,0-.42-1.014L708.557.673a1.436,1.436,0,0,0-1.009-.421H671.691a1.434,1.434,0,0,0-1.434,1.434h0V63.36a1.434,1.434,0,0,0,1.434,1.434h32.478l1.415,2.451a1.435,1.435,0,0,0,1.818.6l2.6-1.137a12.154,12.154,0,0,0,2.521,1.458l.313,2.813a1.434,1.434,0,0,0,1.421,1.273h6.2a1.434,1.434,0,0,0,1.426-1.276l.313-2.813a12.154,12.154,0,0,0,2.521-1.458l2.6,1.137a1.435,1.435,0,0,0,1.818-.6l3.1-5.368A1.434,1.434,0,0,0,731.843,60M708.982,5.152l8.011,8.011h-8.011ZM673.126,61.926V3.122h32.987V14.6a1.434,1.434,0,0,0,1.434,1.434h11.475V41.488h-4.765a1.434,1.434,0,0,0-1.426,1.276l-.313,2.814A12.154,12.154,0,0,0,710,47.036L707.4,45.9a1.435,1.435,0,0,0-1.818.6l-3.1,5.368a1.434,1.434,0,0,0,.392,1.873l2.286,1.675a12.325,12.325,0,0,0,0,2.911l-2.28,1.679a1.434,1.434,0,0,0-.392,1.873l.028.049Zm53.469-6.874a9.483,9.483,0,0,1,0,3.64,1.434,1.434,0,0,0,.558,1.431l1.949,1.429L727.286,64.7l-2.219-.972a1.433,1.433,0,0,0-1.519.234,9.347,9.347,0,0,1-3.147,1.82,1.434,1.434,0,0,0-.962,1.2l-.267,2.4h-3.631l-.267-2.4a1.434,1.434,0,0,0-.962-1.2,9.348,9.348,0,0,1-3.147-1.82,1.433,1.433,0,0,0-1.519-.234l-2.219.972-1.816-3.145,1.95-1.434a1.436,1.436,0,0,0,.558-1.431,9.478,9.478,0,0,1,0-3.639,1.436,1.436,0,0,0-.558-1.431l-1.949-1.434,1.816-3.145,2.219.972a1.433,1.433,0,0,0,1.519-.234,9.343,9.343,0,0,1,3.146-1.82,1.434,1.434,0,0,0,.962-1.2l.267-2.4h3.632l.267,2.4a1.434,1.434,0,0,0,.962,1.2,9.348,9.348,0,0,1,3.147,1.82,1.433,1.433,0,0,0,1.519.234l2.219-.972,1.816,3.145-1.946,1.437a1.434,1.434,0,0,0-.558,1.431" transform="translate(315 279)" fill="#ef5a21"/>
    <path id="Path_396" data-name="Path 396" d="M717.357,51.562a5.309,5.309,0,1,0,5.309,5.309,5.309,5.309,0,0,0-5.309-5.309m0,7.749a2.423,2.423,0,1,1,.034,0h-.034" transform="translate(315 279)" fill="#ef5a21"/>
  </g>
</svg>
