<svg xmlns="http://www.w3.org/2000/svg" width="71.875" height="71.866" viewBox="0 0 71.875 71.866">
  <g id="Group_180" data-name="Group 180" transform="translate(-984.751 -683.78)">
    <path id="Path_412" data-name="Path 412" d="M700.35,44.243a1.645,1.645,0,0,0,1.642,1.643h7.39a1.645,1.645,0,0,0,1.643-1.643V34.331h1.438A1.641,1.641,0,0,0,713.7,31.61l-6.773-7.791a1.644,1.644,0,0,0-2.319-.16,1.867,1.867,0,0,0-.161.16l-6.774,7.791a1.643,1.643,0,0,0,1.233,2.721h1.444Zm2.114-13.129,3.227-3.711,3.223,3.713a1.645,1.645,0,0,0-1.176,1.574V42.6h-4.1V32.688a1.645,1.645,0,0,0-1.175-1.574" transform="translate(315 683)" fill="#ef5a21"/>
    <path id="Path_413" data-name="Path 413" d="M705.685,17.47v.5h0v-.5a19.244,19.244,0,0,0,0,38.487h0a19.244,19.244,0,0,0,0-38.487M689.726,36.712a15.958,15.958,0,1,1,15.958,15.961v0a15.976,15.976,0,0,1-15.958-15.958" transform="translate(315 683)" fill="#ef5a21"/>
    <path id="Path_414" data-name="Path 414" d="M740.563,30.539l-4.886-1.881a30.852,30.852,0,0,0-3.09-7.456l2.128-4.789a1.655,1.655,0,0,0-.34-1.828l-6.564-6.558a1.652,1.652,0,0,0-1.829-.34l-4.79,2.124a30.932,30.932,0,0,0-7.456-3.089l-1.878-4.889A1.653,1.653,0,0,0,710.324.78h-9.28a1.655,1.655,0,0,0-1.535,1.053l-1.881,4.889a30.859,30.859,0,0,0-7.456,3.089l-4.788-2.128a1.653,1.653,0,0,0-1.828.344L677,14.587a1.637,1.637,0,0,0-.339,1.829l2.128,4.789a30.788,30.788,0,0,0-3.09,7.456L670.8,30.54a1.655,1.655,0,0,0-1.051,1.533v9.28a1.651,1.651,0,0,0,1.051,1.535l4.888,1.881a30.756,30.756,0,0,0,3.091,7.456l-2.128,4.788A1.651,1.651,0,0,0,677,58.842l6.562,6.564a1.652,1.652,0,0,0,1.829.338l4.791-2.128a30.732,30.732,0,0,0,7.456,3.089l1.882,4.889a1.654,1.654,0,0,0,1.534,1.052h9.282a1.652,1.652,0,0,0,1.533-1.052l1.882-4.888a30.787,30.787,0,0,0,7.456-3.09l4.788,2.127a1.639,1.639,0,0,0,1.829-.339l6.562-6.563a1.65,1.65,0,0,0,.34-1.829l-2.129-4.791a30.756,30.756,0,0,0,3.09-7.456l4.89-1.882a1.634,1.634,0,0,0,1.052-1.534V32.071a1.653,1.653,0,0,0-1.063-1.532M732.7,43.158a27.565,27.565,0,0,1-3.354,8.09,1.64,1.64,0,0,0-.1,1.527l2.015,4.54-4.968,4.969-4.532-2.016a1.649,1.649,0,0,0-1.53.1,27.506,27.506,0,0,1-8.089,3.354,1.641,1.641,0,0,0-1.152,1.007l-1.776,4.628h-7.035l-1.784-4.631a1.639,1.639,0,0,0-1.15-1,27.526,27.526,0,0,1-8.088-3.353,1.644,1.644,0,0,0-1.529-.1l-4.539,2.016-4.967-4.968,2.015-4.538a1.647,1.647,0,0,0-.1-1.527,27.486,27.486,0,0,1-3.354-8.088,1.646,1.646,0,0,0-1.007-1.15l-4.629-1.777V33.2l4.63-1.782a1.639,1.639,0,0,0,1.007-1.151,27.507,27.507,0,0,1,3.353-8.089,1.651,1.651,0,0,0,.1-1.528l-2.015-4.539,4.967-4.968,4.537,2.015a1.648,1.648,0,0,0,1.529-.1A27.515,27.515,0,0,1,699.236,9.7,1.646,1.646,0,0,0,700.387,8.7l1.782-4.63h7.024L710.976,8.7a1.643,1.643,0,0,0,1.15,1.006,27.563,27.563,0,0,1,8.09,3.353,1.642,1.642,0,0,0,1.528.1l4.537-2.015,4.973,4.969-2.015,4.536a1.645,1.645,0,0,0,.1,1.528,27.56,27.56,0,0,1,3.354,8.089,1.639,1.639,0,0,0,1.007,1.152l4.628,1.777,0,7.03-4.63,1.783a1.641,1.641,0,0,0-1.007,1.15" transform="translate(315 683)" fill="#ef5a21"/>
    <path id="Path_415" data-name="Path 415" d="M711.021,48.53a1.645,1.645,0,0,0-1.643-1.643h-7.389a1.644,1.644,0,0,0,0,3.287h7.389a1.646,1.646,0,0,0,1.643-1.644" transform="translate(315 683)" fill="#ef5a21"/>
  </g>
</svg>
