<svg xmlns="http://www.w3.org/2000/svg" width="82.388" height="65.014" viewBox="0 0 82.388 65.014">
  <g id="Group_184" data-name="Group 184" transform="translate(-650.005 -345.746)">
    <path id="Path_383" data-name="Path 383" d="M400.162,44.085a7.541,7.541,0,0,0,0,15.082h.1a7.516,7.516,0,0,0,7.494-7.543,7.639,7.639,0,0,0-7.589-7.539m4.785,7.679a4.682,4.682,0,0,1-1.428,3.314,4.785,4.785,0,0,1-3.354,1.334,4.714,4.714,0,0,1,0-9.428h.135a4.712,4.712,0,0,1,4.647,4.78" transform="translate(315 342)" fill="#ef5a21"/>
    <path id="Path_384" data-name="Path 384" d="M415.959,47.342h-2.577c-.26-.675-.554-1.346-.876-2l1.8-1.8a1.35,1.35,0,0,0-.005-1.931l-3.974-3.974a1.162,1.162,0,0,0-.093-.093,1.347,1.347,0,0,0-1.9.084l-1.841,1.8a15.777,15.777,0,0,0-1.956-.791V35.982a1.43,1.43,0,0,0-1.423-1.4h-5.73a1.431,1.431,0,0,0-1.455,1.4v2.543a8.649,8.649,0,0,0-1.968.838l-1.823-1.733-.048-.047a1.449,1.449,0,0,0-1.006-.389,1.4,1.4,0,0,0-.979.431l-4.085,3.989a1.512,1.512,0,0,0-.4,1,1.489,1.489,0,0,0,.409.927l1.884,1.885a11.477,11.477,0,0,0-.791,1.958H384.4a1.439,1.439,0,0,0-1.421,1.45v5.735A1.439,1.439,0,0,0,384.414,56h2.618a15.483,15.483,0,0,0,.831,1.954l-1.842,1.8a1.515,1.515,0,0,0-.4,1.009,1.744,1.744,0,0,0,.411.97l4.084,3.989a1.5,1.5,0,0,0,2.025-.011l1.794-1.839c.638.3,1.292.582,1.951.83v2.637a1.436,1.436,0,0,0,1.432,1.421h5.725V68.5l.013.25a1.682,1.682,0,0,0,1.581-1.5V64.614a11.822,11.822,0,0,0,1.957-.791l1.785,1.787.049.047a1.409,1.409,0,0,0,1.987-.044l3.986-3.986a1.347,1.347,0,0,0,0-1.931l-1.8-1.8c.221-.522.514-1.231.787-1.947h2.588a1.436,1.436,0,0,0,1.423-1.45V48.763a1.437,1.437,0,0,0-1.434-1.421m-5.008,6.826a9.044,9.044,0,0,1-1.35,3.171,1.352,1.352,0,0,0,.171,1.76l1.6,1.6-2,2-1.641-1.554a1.348,1.348,0,0,0-1.745-.138,11.711,11.711,0,0,1-3.28,1.36,1.334,1.334,0,0,0-1.062,1.345v2.244h-2.806V63.38a1.367,1.367,0,0,0-1.056-1.344,10.246,10.246,0,0,1-3.235-1.361,1.353,1.353,0,0,0-1.7.226L391.2,62.5l-2.049-2.049,1.535-1.536a1.353,1.353,0,0,0,.29-1.716,9.926,9.926,0,0,1-1.313-3.192,1.485,1.485,0,0,0-1.393-1.1h-2.243V50.008h2.25a1.484,1.484,0,0,0,1.389-1.111,9.784,9.784,0,0,1,1.315-3.236,1.347,1.347,0,0,0-.278-1.688l-1.552-1.6,2.047-2,1.636,1.592a1.338,1.338,0,0,0,1.712.236,10.281,10.281,0,0,1,3.234-1.359,1.367,1.367,0,0,0,1.054-1.343V37.253h2.907V39.5a1.363,1.363,0,0,0,1.044,1.341,14.362,14.362,0,0,1,3.249,1.365,1.358,1.358,0,0,0,1.692-.224l1.645-1.558,2.005,2.047-1.621,1.624a1.667,1.667,0,0,0-.155,1.779,9.455,9.455,0,0,1,1.358,3.187,1.483,1.483,0,0,0,1.392,1.1h2.192V53.06h-2.2a1.485,1.485,0,0,0-1.389,1.108" transform="translate(315 342)" fill="#ef5a21"/>
    <path id="Path_385" data-name="Path 385" d="M375.083,32.87a15.617,15.617,0,0,0-14.15-15.527V9.851a3.34,3.34,0,0,1,3.334-3.3h31.192a3.287,3.287,0,0,1,3.253,3.3V24.112L395.495,20.9a1.4,1.4,0,0,0-1.986,1.984l5.457,5.5a1.428,1.428,0,0,0,1.173.617h.008q.045,0,.09,0c.03,0,.061,0,.09,0a1.163,1.163,0,0,0,.21-.057,1.4,1.4,0,0,0,.228-.061,1.416,1.416,0,0,0,.146-.091,1.439,1.439,0,0,0,.246-.153l5.7-5.745c.033-.03.064-.061.1-.1a1.339,1.339,0,0,0,.347-.973,1.322,1.322,0,0,0-.427-.918l-.051-.051a1.435,1.435,0,0,0-1.006-.389,1.4,1.4,0,0,0-.982.433l-3.316,3.316V9.831a6.094,6.094,0,0,0-6.093-6.085h-31.19a6.149,6.149,0,0,0-6.2,6.1v7.5a15.615,15.615,0,0,0-14.15,15.518,13.249,13.249,0,0,0,3.135,9.053c1.658,2.237,3.368,4.55,3.561,11.573h-.835A3.47,3.47,0,0,0,347,59.021a3.451,3.451,0,0,0,2.688,5.615h3.037A5.608,5.608,0,0,0,358.1,68.76h3.022v-.25h0l0,.25a5.756,5.756,0,0,0,5.4-4.125h2.884a3.444,3.444,0,0,0,2.7-5.523,3.357,3.357,0,0,0,.707-2.16,3.459,3.459,0,0,0-3.416-3.465h-.975c.192-7.131,1.909-9.4,3.565-11.58a12.75,12.75,0,0,0,3.083-9.037M369.4,57.562a1.43,1.43,0,0,0-.606.146h-18.44a1.478,1.478,0,0,0-.627-.147h0a.62.62,0,0,1-.593-.649v-.066a.576.576,0,0,1,.187-.4.582.582,0,0,1,.426-.153h17.3l.016,0h.029l.035,0h2.3a.785.785,0,0,1,.084,0,.558.558,0,0,1,.379.191.613.613,0,0,1,.133.456.624.624,0,0,1-.62.628m.62,3.545a.624.624,0,0,1-.614.629H349.724a.62.62,0,0,1-.593-.648v-.068a.582.582,0,0,1,.581-.558h19.754a.6.6,0,0,1,.558.645m-6.529,3.528a2.737,2.737,0,0,1-.4.53,2.7,2.7,0,0,1-1.92.793h-3a2.741,2.741,0,0,1-2.33-1.323Zm-2.463-11.148V43.808l3.909-2.281a1.4,1.4,0,0,0-1.453-2.4l-3.922,2.224-3.841-2.223a1.479,1.479,0,0,0-1.975.481,1.426,1.426,0,0,0,.524,1.919l3.858,2.269v9.688h-4.654c-.212-7.948-2.28-10.755-4.12-13.238l-.046-.061a10.264,10.264,0,0,1-2.528-7.318,12.781,12.781,0,0,1,12.141-12.736,1.51,1.51,0,0,0,.562.134,1.462,1.462,0,0,0,.6-.139A12.783,12.783,0,0,1,372.33,32.885a10.019,10.019,0,0,1-2.527,7.3l-.044.058c-1.841,2.483-3.911,5.289-4.123,13.243Zm39.13-24.74h0l0,.03v-.031Z" transform="translate(315 342)" fill="#ef5a21"/>
    <path id="Path_386" data-name="Path 386" d="M361.548,22.6a12.431,12.431,0,0,0-12.386,12.459,1.438,1.438,0,0,0,1.453,1.424l0-.25h0l.013.249a1.416,1.416,0,0,0,1.337-1.434,9.577,9.577,0,0,1,9.567-9.549h.016a1.45,1.45,0,0,0,0-2.9" transform="translate(315 342)" fill="#ef5a21"/>
    <path id="Path_387" data-name="Path 387" d="M371.645,12.94l-1.973,3.508a1.463,1.463,0,0,0,.572,1.933,3.146,3.146,0,0,0,.676.157l.031-.248v0l.007.25a1.336,1.336,0,0,0,1.167-.748l2.025-3.474a1.482,1.482,0,0,0-.592-1.912,1.458,1.458,0,0,0-1.914.532" transform="translate(315 342)" fill="#ef5a21"/>
    <path id="Path_388" data-name="Path 388" d="M384.077,22.827l-.038-.068a1.42,1.42,0,0,0-1.939-.515l-3.455,1.968a1.442,1.442,0,0,0-.529,1.961,1.315,1.315,0,0,0,1.164.713h.022a1.752,1.752,0,0,0,.742-.177l3.454-1.967a1.449,1.449,0,0,0,.579-1.915" transform="translate(315 342)" fill="#ef5a21"/>
    <path id="Path_389" data-name="Path 389" d="M346.986,17.783a1.428,1.428,0,0,0,1.221.757v-.005c.032,0,.065.005.1.005a1.826,1.826,0,0,0,.705-.235,1.368,1.368,0,0,0,.476-1.872L347.45,12.9a1.409,1.409,0,0,0-2.427,1.434Z" transform="translate(315 342)" fill="#ef5a21"/>
    <path id="Path_390" data-name="Path 390" d="M340.567,24.212l-3.462-1.972a1.48,1.48,0,0,0-1.975.6,1.534,1.534,0,0,0,.586,1.9l3.469,1.975a1.74,1.74,0,0,0,.729.168l0-.249.009.25a1.4,1.4,0,0,0,1.173-.712,1.511,1.511,0,0,0-.531-1.962" transform="translate(315 342)" fill="#ef5a21"/>
  </g>
</svg>
