<svg xmlns="http://www.w3.org/2000/svg" width="66.498" height="72.128" viewBox="0 0 66.498 72.128">
  <g id="Group_179" data-name="Group 179" transform="translate(-1322.001 -683.653)">
    <path id="Path_418" data-name="Path 418" d="M1070.1,18.5h-.531a20.514,20.514,0,0,0-1.663-4.012l.378-.378a3.4,3.4,0,0,0,0-4.8l-3.436-3.433a3.386,3.386,0,0,0-2.392-1h-.027a3.386,3.386,0,0,0-2.385.994l-.377.377a20.447,20.447,0,0,0-4.015-1.667v-.53a3.4,3.4,0,0,0-3.4-3.4h-4.86a3.4,3.4,0,0,0-3.4,3.395v.53a20.507,20.507,0,0,0-4.016,1.669l-.375-.375a3.4,3.4,0,0,0-4.8,0l-3.443,3.434a3.4,3.4,0,0,0,0,4.8l.377.377a20.441,20.441,0,0,0-1.664,4.013h-.533a3.407,3.407,0,0,0-3.395,3.4v4.864a3.4,3.4,0,0,0,3.4,3.4h.535a20.425,20.425,0,0,0,1.664,4.014l-.377.377a3.41,3.41,0,0,0,0,4.8l3.433,3.433a3.391,3.391,0,0,0,2.391,1h.024a3.389,3.389,0,0,0,2.389-.994l.377-.377a20.429,20.429,0,0,0,4.017,1.665V44.6a3.4,3.4,0,0,0,3.4,3.394h4.86a3.4,3.4,0,0,0,3.4-3.394v-.532a20.422,20.422,0,0,0,4.014-1.664l.374.374a3.4,3.4,0,0,0,4.8,0l3.441-3.439a3.407,3.407,0,0,0,0-4.8l-.378-.379a20.423,20.423,0,0,0,1.664-4.009h.531a3.405,3.405,0,0,0,3.4-3.4V21.893a3.408,3.408,0,0,0-3.394-3.4m-5.448,17.116,1.282,1.281a.083.083,0,0,1,0,.111l-3.444,3.44a.075.075,0,0,1-.105,0l-1.284-1.285a1.648,1.648,0,0,0-2.061-.228,17.1,17.1,0,0,1-3.391,1.659v-5.53A12.638,12.638,0,0,0,1057.3,13.2c-.555-.378-2.241-1.528-3.764-.65-1.5.864-1.358,2.814-1.3,3.651.005.062.01.115.011.135V22.96a2.435,2.435,0,0,1-4.847.469,2.536,2.536,0,0,1,0-.493v-6.59c0-.023,0-.051.006-.083l.006-.071c.062-.831.207-2.779-1.294-3.642-1.532-.88-3.214.272-3.765.65a12.635,12.635,0,0,0,1.646,21.862v5.514a17.2,17.2,0,0,1-3.4-1.659,1.648,1.648,0,0,0-2.06.229l-1.286,1.286a.078.078,0,0,1-.106,0L1033.726,37a.081.081,0,0,1,0-.111l1.283-1.285a1.649,1.649,0,0,0,.23-2.06,17.105,17.105,0,0,1-2.246-5.414,1.648,1.648,0,0,0-1.617-1.3h-1.811a.085.085,0,0,1-.085-.078V21.9a.08.08,0,0,1,.078-.081h1.815a1.652,1.652,0,0,0,1.62-1.3,17.072,17.072,0,0,1,2.245-5.416,1.651,1.651,0,0,0-.23-2.06l-1.278-1.28a.085.085,0,0,1,0-.112l3.488-3.46,1.338,1.307a1.651,1.651,0,0,0,2.06.23,17.16,17.16,0,0,1,5.421-2.249,1.65,1.65,0,0,0,1.294-1.618V4.053a.083.083,0,0,1,.079-.081h4.857a.082.082,0,0,1,.081.077V5.861a1.65,1.65,0,0,0,1.3,1.618,17.076,17.076,0,0,1,5.416,2.249,1.65,1.65,0,0,0,2.061-.229l1.286-1.286a.077.077,0,0,1,.106,0l3.437,3.434a.084.084,0,0,1,0,.112l-1.285,1.284a1.653,1.653,0,0,0-.229,2.06,17.22,17.22,0,0,1,2.246,5.421,1.651,1.651,0,0,0,1.618,1.3h1.809a.08.08,0,0,1,.081.078l0,4.859a.085.085,0,0,1-.078.082h-1.812a1.65,1.65,0,0,0-1.618,1.3,17.2,17.2,0,0,1-2.246,5.421,1.652,1.652,0,0,0,.229,2.06m-12.313-1.645V44.353l-.005.246a.081.081,0,0,1-.078.082H1047.4a.08.08,0,0,1-.081-.078V33.968a1.668,1.668,0,0,0-1.083-1.556,9.319,9.319,0,0,1-2.135-16.385c-.008.116-.014.213-.014.312v6.6a6.072,6.072,0,0,0,5.634,6.019,1.348,1.348,0,0,0,.22,0,6.072,6.072,0,0,0,5.627-6.019v-6.6c0-.092-.005-.184-.014-.313a9.319,9.319,0,0,1-2.132,16.386,1.668,1.668,0,0,0-1.082,1.556" transform="translate(315 683)" fill="#ef5a21"/>
    <path id="Path_419" data-name="Path 419" d="M1058.965,61.829h-.005a1.657,1.657,0,0,0-1.173.488l0,0a1.659,1.659,0,0,0,2.3,2.4l.057-.055a1.661,1.661,0,0,0-1.178-2.832" transform="translate(315 683)" fill="#ef5a21"/>
    <path id="Path_420" data-name="Path 420" d="M1064.328,48.718l-10.93,5.613a5.445,5.445,0,0,0-3.765-1.524h-7.618a1.679,1.679,0,0,1-.412-.021,3.779,3.779,0,0,1-.346-.309l-.067-.063c-6.249-5.884-11.531-5.517-17.559-3.142a3.742,3.742,0,0,1-1.822.393h-1.537a3.975,3.975,0,0,0-3.709-2.548h-5.593A3.98,3.98,0,0,0,1007,51.094v14.68a3.98,3.98,0,0,0,3.969,3.97h5.594a3.975,3.975,0,0,0,3.708-2.545h2.976a1.249,1.249,0,0,1,.551.089c.112.033.248.071.416.116l14.47,3.872c.577.155,1.112.31,1.627.46l.146.042a18.545,18.545,0,0,0,5.132,1,11.309,11.309,0,0,0,6.459-2.334l2.76-1.967a1.659,1.659,0,1,0-1.924-2.7l-2.738,1.952c-3.561,2.37-4.976,1.963-8.755.868l-.224-.064c-.51-.149-1.039-.3-1.621-.458L1025.073,64.2l-.4-.11a4.189,4.189,0,0,0-1.441-.212h-2.7V52.987h1.389a7.006,7.006,0,0,0,2.942-.631c5.094-2.011,9.026-2.251,14.049,2.476l.052.049a3.673,3.673,0,0,0,3.062,1.247h7.607a2.119,2.119,0,0,1,1.83,1.062l.032.059a2.111,2.111,0,0,1-1.86,3.111h-12.335a1.659,1.659,0,1,0,0,3.318h12.335a5.425,5.425,0,0,0,5.335-6.414l10.9-5.6a1.99,1.99,0,1,1,2.094,3.384l-4.844,3.452a1.659,1.659,0,1,0,1.923,2.7l4.835-3.461a5.3,5.3,0,0,0-5.554-9.028m-47.108,2.376V65.771a.662.662,0,0,1-.656.653h-5.589a.663.663,0,0,1-.655-.65V51.094a.657.657,0,0,1,.65-.656h5.59a.665.665,0,0,1,.66.656m47.235-2.16-.005,0-.033-.066Z" transform="translate(315 683)" fill="#ef5a21"/>
  </g>
</svg>
