<svg xmlns="http://www.w3.org/2000/svg" width="73.414" height="72.505" viewBox="0 0 73.414 72.505">
  <g id="Group_183" data-name="Group 183" transform="translate(-315 -342)">
    <path id="Path_380" data-name="Path 380" d="M50.12,32.649l-1.793-.316a16.514,16.514,0,0,0-.8-1.806l1.053-1.473a1.449,1.449,0,0,0-.145-1.794L45.469,24.3a1.434,1.434,0,0,0-1.794-.134L42.208,25.21a16.542,16.542,0,0,0-1.806-.8l-.316-1.793A1.358,1.358,0,0,0,38.7,21.5h-4.2a1.357,1.357,0,0,0-1.394,1.116l-.316,1.792a16.542,16.542,0,0,0-1.806.8l-1.473-1.053a1.449,1.449,0,0,0-1.8.146l-2.963,2.963a1.439,1.439,0,0,0-.135,1.8l1.048,1.466a16.514,16.514,0,0,0-.8,1.806l-1.793.316a1.36,1.36,0,0,0-1.116,1.383v4.183a1.288,1.288,0,0,0,1.116,1.411h0l1.792.316a16.5,16.5,0,0,0,.8,1.805l-1.052,1.474a1.449,1.449,0,0,0,.145,1.794l2.963,2.964a1.437,1.437,0,0,0,1.8.134l1.467-1.048a16.3,16.3,0,0,0,1.806.8l.316,1.795a1.363,1.363,0,0,0,1.329,1.116h4.253a1.369,1.369,0,0,0,1.393-1.117l.316-1.793a16.3,16.3,0,0,0,1.806-.8l1.473,1.053a1.449,1.449,0,0,0,1.8-.146l2.963-2.964a1.437,1.437,0,0,0,.135-1.794l-1.049-1.467a16.5,16.5,0,0,0,.8-1.805l1.793-.316a1.361,1.361,0,0,0,1.116-1.383v-4.2a1.363,1.363,0,0,0-1.116-1.394M45.1,42.821l.9,1.307-1.3,1.3-1.323-.916a1.492,1.492,0,0,0-1.51,0A8.5,8.5,0,0,1,39.1,45.62,1.472,1.472,0,0,0,38.011,46.7l-.4,1.411H35.726l-.3-1.515a1.478,1.478,0,0,0-1.09-1.094,12.113,12.113,0,0,1-2.78-1.11,1.492,1.492,0,0,0-1.519.01l-1.315.9-1.3-1.3.915-1.323a1.483,1.483,0,0,0,0-1.51,8.5,8.5,0,0,1-1.106-2.77,1.483,1.483,0,0,0-1.118-1.1l-1.37-.194V35.264l1.515-.3a1.477,1.477,0,0,0,1.093-1.09,12.121,12.121,0,0,1,1.11-2.781,1.487,1.487,0,0,0-.009-1.52l-.906-1.307,1.3-1.3,1.323.916a1.49,1.49,0,0,0,1.51,0,8.465,8.465,0,0,1,2.771-1.107,1.481,1.481,0,0,0,1.1-1.1l.3-1.505h1.865l.3,1.515a1.475,1.475,0,0,0,1.09,1.093,12.137,12.137,0,0,1,2.78,1.112,1.489,1.489,0,0,0,1.521-.01l1.307-.906,1.3,1.3-.915,1.323a1.481,1.481,0,0,0,0,1.509A8.52,8.52,0,0,1,46.2,33.866a1.479,1.479,0,0,0,1.1,1.1l1.505.3v1.863l-1.515.3A1.477,1.477,0,0,0,46.2,38.52a12.149,12.149,0,0,1-1.11,2.78,1.487,1.487,0,0,0,.01,1.521M23.12,39.38h0v0Z" transform="translate(315 342)" fill="#ef5a21"/>
    <path id="Path_381" data-name="Path 381" d="M36.655,28.55a7.643,7.643,0,0,0-.028,15.286h.028a7.643,7.643,0,1,0,0-15.286m-.036,2.774h.036a4.85,4.85,0,1,1-.036,0m.036,12.262Z" transform="translate(315 342)" fill="#ef5a21"/>
    <path id="Path_382" data-name="Path 382" d="M71.361,51.9a4.244,4.244,0,0,0-2.176-.6,4.774,4.774,0,0,0-1.639.3l-1.827-1.933a1.485,1.485,0,0,0-.973-.41H56.924V37.7h3.892a4.2,4.2,0,1,0,3.939-5.618,4.046,4.046,0,0,0-3.948,2.844H56.924V23.366h7.818a1.347,1.347,0,0,0,1-.425l1.7-1.915a4.305,4.305,0,0,0,5.867-3.933,4.134,4.134,0,0,0-4.034-4.237h-.1c-.042,0-.084,0-.121,0a4.206,4.206,0,0,0-4.205,4.24,4.921,4.921,0,0,0,.518,2L64.071,20.59H61.935V11.755a1.326,1.326,0,0,0-1.241-1.4.884.884,0,0,0-.146,0H51.464V8.168a4.2,4.2,0,0,0,2.606-5.2,4.205,4.205,0,0,0-8.224,1.258A4.03,4.03,0,0,0,48.69,8.177v3.436a1.327,1.327,0,0,0,1.242,1.4,1.009,1.009,0,0,0,.146,0h9.077v7.463h-2.23V18.013a1.325,1.325,0,0,0-1.244-1.4c-.052,0-.1,0-.144,0H38.043V10.9a4.2,4.2,0,1,0-5.618-3.94,4.027,4.027,0,0,0,2.844,3.949v5.7H17.789a1.329,1.329,0,0,0-.958.331,1.31,1.31,0,0,0-.444.91,1.04,1.04,0,0,0,0,.147v2.366h-2.23V12.9h9.062a1.324,1.324,0,0,0,1.4-1.243,1.163,1.163,0,0,0,0-.145V8.168A4.2,4.2,0,0,0,21.98.186a4.23,4.23,0,0,0-2.973,4.042A4.028,4.028,0,0,0,21.85,8.177v2.061H12.784a1.326,1.326,0,0,0-1.4,1.242,1.011,1.011,0,0,0,0,.145v8.85H9.129L7.842,18.991a4.229,4.229,0,0,0-3.716-6.249h-.01A4.112,4.112,0,0,0,0,16.845l0,.126A4.206,4.206,0,0,0,4.24,21.2a4.76,4.76,0,0,0,1.638-.3l1.713,1.82a1.488,1.488,0,0,0,.973.411H16.39V34.695H11.928a4.2,4.2,0,0,0-5.143-2.678A4.207,4.207,0,0,0,3.76,36.075a4.136,4.136,0,0,0,4.033,4.237c.069,0,.138,0,.193,0a4.019,4.019,0,0,0,3.948-2.843h4.452V49.027H8.307v.131a1.282,1.282,0,0,0-.737.407l-1.7,1.915a4.507,4.507,0,0,0-1.637-.293,4.231,4.231,0,0,0-.006,8.462,4.136,4.136,0,0,0,4.237-4.032c0-.068,0-.138,0-.208a4.916,4.916,0,0,0-.518-2l1.292-1.491h2.136v8.835a1.324,1.324,0,0,0,1.24,1.4,1.037,1.037,0,0,0,.146,0h9.077v2.069a4.206,4.206,0,1,0,5.619,3.94,4.026,4.026,0,0,0-2.844-3.948V60.778a1.325,1.325,0,0,0-1.242-1.4.8.8,0,0,0-.146,0H14.156V51.915h2.23V54.4a1.416,1.416,0,0,0,1.388,1.383H35.268v6.279A4.205,4.205,0,1,0,40.886,66a4.029,4.029,0,0,0-2.844-3.948V55.783H55.523a1.348,1.348,0,0,0,1.4-1.244,1.163,1.163,0,0,0,0-.145V52.029h2.23v7.462H50.092a1.35,1.35,0,0,0-1.4,1.243,1.4,1.4,0,0,0,0,.144v3.459a4.205,4.205,0,1,0,5.618,3.939,4.026,4.026,0,0,0-2.844-3.947V62.267h9.062a1.326,1.326,0,0,0,.958-.332,1.308,1.308,0,0,0,.444-.912,1.13,1.13,0,0,0,0-.143V52.03h2.252l1.288,1.486A4.23,4.23,0,1,0,71.361,51.9m-2.295,2.059a1.5,1.5,0,0,1,1.462,1.459,1.456,1.456,0,1,1-1.462-1.459M63.294,36.2a1.5,1.5,0,0,1,1.459-1.462A1.456,1.456,0,1,1,63.294,36.2m4.322-19.109a1.5,1.5,0,0,1,1.459-1.462,1.456,1.456,0,1,1-1.459,1.462M51.533,4.233a1.458,1.458,0,0,1-1.455,1.455h0a1.455,1.455,0,1,1,0-2.909h0a1.458,1.458,0,0,1,1.455,1.454M38.225,7.075a1.467,1.467,0,0,1-1.338,1.458,1.593,1.593,0,0,1-1.574-1.465,1.458,1.458,0,0,1,1.456-1.445h0a1.457,1.457,0,0,1,1.454,1.452M36.65,67.454A1.456,1.456,0,0,1,35.195,66a1.467,1.467,0,0,1,1.349-1.459h.04A1.53,1.53,0,0,1,38.107,66a1.457,1.457,0,0,1-1.455,1.452ZM19.161,19.385H54.149V53H19.161ZM21.891,4.24V4.234A1.456,1.456,0,0,1,24.8,4.227a1.5,1.5,0,0,1-1.46,1.463h-.027a1.427,1.427,0,0,1-1.425-1.4l-.25-.056ZM5.693,16.973a1.455,1.455,0,0,1-1.449,1.456,1.456,1.456,0,1,1-.006-2.912,1.454,1.454,0,0,1,1.455,1.456m3.755,19.1a1.6,1.6,0,0,1-1.466,1.574,1.456,1.456,0,1,1,1.466-1.574M4.239,53.848h0a1.457,1.457,0,0,1,0,2.913H4.236a1.457,1.457,0,0,1,0-2.913M21.776,68.161A1.466,1.466,0,0,1,23.115,66.7a1.6,1.6,0,0,1,1.573,1.455,1.456,1.456,0,0,1-2.912,0m29.643,0h0a1.456,1.456,0,0,1-1.455,1.457h0a1.458,1.458,0,0,1-.1-2.912H49.9a1.528,1.528,0,0,1,1.521,1.456" transform="translate(315 342)" fill="#ef5a21"/>
  </g>
</svg>
