<svg xmlns="http://www.w3.org/2000/svg" width="66.441" height="66.394" viewBox="0 0 66.441 66.394">
  <path id="Path_397" data-name="Path 397" d="M1045.433,22.649a1.606,1.606,0,0,1,0-3.209h14.425a1.606,1.606,0,0,1,0,3.209ZM1020.1,12.38a1.571,1.571,0,0,1,0-3.135h9.59a1.571,1.571,0,0,1,.21,3.135,1.473,1.473,0,0,1-.21,0Zm22.353,37.313h16.621a3.563,3.563,0,0,1,3.541,3.526v4.943a3.5,3.5,0,0,1-3.534,3.445h-16.628a3.5,3.5,0,0,1-3.534-3.445V53.22a3.519,3.519,0,0,1,3.511-3.526h.022m16.621,3.216h-16.62a.362.362,0,0,0-.4.31v4.943a.361.361,0,0,0,.4.31h16.621c.155,0,.391-.155.391-.31V53.22a.354.354,0,0,0-.391-.31m-44.853,13.323h51.521a.96.96,0,0,0,1.018-.863l3.762-33.706a.965.965,0,0,0-.83-1.085.908.908,0,0,0-.188-.007h-22.381c-5.644,0-2.036,9.015-10.328,9.015h-25.319a.93.93,0,0,0-1.027.821.942.942,0,0,0,.009.27l2.73,24.692a.908.908,0,0,0,.944.869.308.308,0,0,0,.074-.006Zm51.522,3.216h-51.522a4.22,4.22,0,0,1-4.153-3.762l-2.782-24.618a4.213,4.213,0,0,1,3.7-4.672h0q.19-.022.384-.027a.575.575,0,0,0,.627-.518h0a.651.651,0,0,0,0-.108V4.626a1.579,1.579,0,0,1,1.582-1.571h45.185a1.571,1.571,0,0,1,1.564,1.571v6.345a.62.62,0,0,0,.612.627h2.368a6.224,6.224,0,0,1,3.925,1.475,5.1,5.1,0,0,1,1.645,3.762v9.893a.62.62,0,0,0,.612.627h.015a4.242,4.242,0,0,1,4.193,4.29h0c0,.112-.006.224-.017.335L1069.9,65.687a4.227,4.227,0,0,1-4.153,3.762M1015.866,36.37h6.592a.62.62,0,0,0,.627-.612V25.71a1.7,1.7,0,0,1,.546-1.254l12.627-12.386a1.476,1.476,0,0,1,1.1-.391h19.178a.694.694,0,0,0,.627-.738V6.9a.693.693,0,0,0-.627-.738h-40.67a.737.737,0,0,0-.738.738V35.743a.642.642,0,0,0,.649.634.655.655,0,0,0,.089-.007m10.977,0h9.952c5.489,0,1.962-9.015,10.328-9.015h17.992a.62.62,0,0,0,.627-.612V16.855a1.959,1.959,0,0,0-.627-1.409,2.809,2.809,0,0,0-1.807-.627h-24a.575.575,0,0,0-.627.518h0a.638.638,0,0,0,0,.108V22.24a5.415,5.415,0,0,1-5.407,5.407h-6.431a.68.68,0,0,0-.627.627v7.451a.62.62,0,0,0,.612.627h.015Zm2.744-11.8h3.689a2.324,2.324,0,0,0,2.272-2.331v-3.5a.657.657,0,0,0-1.1-.472l-5.253,5.164a.635.635,0,0,0,.391,1.092Z" transform="translate(-1007.257 -3.055)" fill="#ef5a21"/>
</svg>
