<svg xmlns="http://www.w3.org/2000/svg" width="90.009" height="72.531" viewBox="0 0 90.009 72.531">
  <g id="Group_181" data-name="Group 181" transform="translate(-650.248 -683)">
    <path id="Path_416" data-name="Path 416" d="M425.062,17.393a5.548,5.548,0,0,0-5.356-4.1H419.7a5.557,5.557,0,0,0-5.356,4.1h-6.61a1.452,1.452,0,0,0-1.452,1.452V36.527h-5.151V13.845a5.549,5.549,0,1,0-2.9,0V36.527h-.988a1.452,1.452,0,0,0-1.452,1.452,15.539,15.539,0,1,1-31.079,0,1.452,1.452,0,0,0-1.452-1.452h-.988V13.845a5.55,5.55,0,1,0-2.9,0V36.527h-5.157V18.843a1.452,1.452,0,0,0-1.452-1.452h-6.61a5.549,5.549,0,1,0,0,2.9h5.158V36.527H347.15a1.452,1.452,0,0,0-1.452,1.452v4.482a1.452,1.452,0,0,0,.93,1.355l4.782,1.841a29.671,29.671,0,0,0,3.021,7.289l-2.081,4.682a1.451,1.451,0,0,0,.3,1.616l6.335,6.335a1.451,1.451,0,0,0,1.616.3l4.687-2.082a29.65,29.65,0,0,0,7.286,3.021l1.841,4.783a1.451,1.451,0,0,0,1.355.93h8.96a1.452,1.452,0,0,0,1.355-.93l1.84-4.782a29.618,29.618,0,0,0,7.289-3.022l4.686,2.081a1.451,1.451,0,0,0,1.616-.3l6.335-6.335a1.451,1.451,0,0,0,.3-1.616l-2.082-4.687a29.641,29.641,0,0,0,3.021-7.287l4.783-1.841a1.451,1.451,0,0,0,.93-1.355v-4.48a1.451,1.451,0,0,0-1.453-1.45h-4.163V20.3h5.163a5.549,5.549,0,0,0,10.712-2.9M340.8,21.49v0a2.646,2.646,0,1,1,2.65-2.65,2.646,2.646,0,0,1-2.65,2.65m56.234-13v0a2.646,2.646,0,1,1,2.646,2.646,2.646,2.646,0,0,1-2.646-2.646m-38.861,0v0a2.646,2.646,0,1,1,2.646,2.646,2.646,2.646,0,0,1-2.646-2.646M411.9,39.43v2.031h0l-4.555,1.754a1.452,1.452,0,0,0-.891,1.019,26.753,26.753,0,0,1-3.253,7.847,1.452,1.452,0,0,0-.091,1.35l1.983,4.465-4.926,4.926L395.7,60.84a1.452,1.452,0,0,0-1.35.091,26.756,26.756,0,0,1-7.849,3.254,1.452,1.452,0,0,0-1.019.891l-1.753,4.554h-6.966l-1.754-4.555a1.452,1.452,0,0,0-1.019-.891,26.756,26.756,0,0,1-7.847-3.254,1.452,1.452,0,0,0-1.35-.091l-4.464,1.983L355.407,57.9l1.982-4.463a1.452,1.452,0,0,0-.091-1.35,26.756,26.756,0,0,1-3.254-7.849,1.452,1.452,0,0,0-.891-1.019L348.6,41.461V39.43h13.264a18.443,18.443,0,0,0,36.772,0Zm7.8-17.94h0a2.646,2.646,0,1,1,2.65-2.645,2.646,2.646,0,0,1-2.65,2.645" transform="translate(315 683)" fill="#ef5a21"/>
    <path id="Path_417" data-name="Path 417" d="M370.535,15.761h3.233V41.719a1.452,1.452,0,0,0,1.452,1.452h10.061a1.452,1.452,0,0,0,1.452-1.452V15.761h3.233a2.157,2.157,0,0,0,1.644-3.553L381.895.761a2.157,2.157,0,0,0-3.04-.249,2.093,2.093,0,0,0-.249.249L368.89,12.2a2.157,2.157,0,0,0,1.645,3.557m9.715-12.45,8.1,9.544h-3.069a1.452,1.452,0,0,0-1.452,1.452v25.96h-7.158V14.307a1.452,1.452,0,0,0-1.452-1.452H372.15Z" transform="translate(315 683)" fill="#ef5a21"/>
  </g>
</svg>
