<svg xmlns="http://www.w3.org/2000/svg" width="40.676" height="40.676" viewBox="0 0 40.676 40.676">
  <g id="Group_570" data-name="Group 570" transform="translate(-1847.324 -24)">
    <path id="Path_199" data-name="Path 199" d="M40.676,20.338A20.338,20.338,0,1,1,20.338,0,20.294,20.294,0,0,1,40.676,20.338Z" transform="translate(1847.324 24)" fill="#e5e5e5"/>
    <path id="Path_200" data-name="Path 200" d="M135.846,129.232a20.339,20.339,0,0,1-26.176,0,.642.642,0,0,0,.227-.079c2.386-1.255,4.805-2.451,7.159-3.762a2.942,2.942,0,0,0,1.667-2.7c-.011-.551.023-1.1-.013-1.652a1.534,1.534,0,0,0-.236-.766,17.862,17.862,0,0,1-2.2-4.088,1.253,1.253,0,0,0-.5-.576,2.125,2.125,0,0,1-1.069-1.957c0-.9-.013-1.807.047-2.707a2.59,2.59,0,0,1,.367-1,1.634,1.634,0,0,0,.252-.833c-.016-1.178,0-2.357-.02-3.535a5.321,5.321,0,0,1,3.787-5.362,23.573,23.573,0,0,1,7.247,0,5.321,5.321,0,0,1,3.787,5.362c-.025,1.178,0,2.357-.021,3.535a1.634,1.634,0,0,0,.252.833,2.59,2.59,0,0,1,.367,1c.06.9.046,1.8.047,2.707a2.125,2.125,0,0,1-1.069,1.957,1.253,1.253,0,0,0-.5.576,17.862,17.862,0,0,1-2.2,4.088,1.534,1.534,0,0,0-.236.766c-.036.549,0,1.1-.013,1.652a2.942,2.942,0,0,0,1.667,2.7c2.354,1.312,4.773,2.507,7.159,3.762A.642.642,0,0,0,135.846,129.232Z" transform="translate(1744.904 -69.326)" fill="#fff"/>
  </g>
</svg>
