<?xml version="1.0" encoding="UTF-8"?><svg id="Capa_1" xmlns="http://www.w3.org/2000/svg" viewBox="0 0 53 53"><defs><style>.cls-1{fill:#fff;}.cls-2{fill:#3f51b5;}</style></defs><path class="cls-1" d="M18.76,41.27l-7.76,4.23c-.46,.25-.86,.55-1.25,.89,4.52,3.81,10.36,6.11,16.74,6.11s12.13-2.27,16.64-6.03c-.42-.35-.87-.67-1.37-.92l-8.31-4.15c-1.07-.54-1.75-1.63-1.75-2.83v-3.26c.23-.27,.5-.61,.79-1.01,1.13-1.6,1.99-3.36,2.58-5.2,1.07-.33,1.85-1.31,1.85-2.48v-3.48c0-.77-.34-1.45-.87-1.93v-5.03s1.03-7.83-9.57-7.83-9.57,7.83-9.57,7.83v5.03c-.53,.48-.87,1.16-.87,1.93v3.48c0,.92,.48,1.72,1.2,2.19,.87,3.78,3.15,6.51,3.15,6.51v3.18c0,1.16-.63,2.22-1.65,2.78Z"/><path class="cls-2" d="M26.95,.5C12.59,.26,.75,11.7,.5,26.05c-.14,8.14,3.49,15.46,9.27,20.32,.38-.33,.78-.63,1.23-.88l7.76-4.23c1.02-.56,1.65-1.62,1.65-2.78v-3.18s-2.28-2.72-3.15-6.51c-.72-.47-1.2-1.27-1.2-2.19v-3.48c0-.77,.34-1.45,.87-1.93v-5.03s-1.03-7.83,9.57-7.83,9.57,7.83,9.57,7.83v5.03c.53,.48,.87,1.16,.87,1.93v3.48c0,1.17-.78,2.15-1.85,2.48-.59,1.85-1.45,3.6-2.58,5.2-.29,.4-.55,.74-.79,1.01v3.26c0,1.2,.68,2.3,1.75,2.83l8.31,4.15c.5,.25,.95,.56,1.36,.91,5.6-4.67,9.22-11.66,9.36-19.53C52.74,12.59,41.3,.75,26.95,.5Z"/></svg>