<?xml version="1.0" encoding="utf-8"?>
<!-- Generator: Adobe Illustrator 27.0.1, SVG Export Plug-In . SVG Version: 6.00 Build 0)  -->
<svg version="1.1" id="Capa_1" xmlns="http://www.w3.org/2000/svg" xmlns:xlink="http://www.w3.org/1999/xlink" x="0px" y="0px"
	 viewBox="0 0 53 53" style="enable-background:new 0 0 53 53;" xml:space="preserve">
<style type="text/css">
	.st0{fill:#FDFFFF;}
</style>
<path class="st0" d="M26.5,0.2C12,0.2,0.2,12,0.2,26.5C0.2,41,12,52.8,26.5,52.8C41,52.8,52.8,41,52.8,26.5C52.8,12,41,0.2,26.5,0.2
	z M42.9,45c-0.3-0.2-0.5-0.3-0.8-0.5l-8.5-4.2c-1.1-0.5-1.8-1.7-1.8-2.9v-3.3c0.2-0.3,0.5-0.6,0.8-1c1.2-1.6,2-3.4,2.6-5.3
	c1.1-0.3,1.9-1.3,1.9-2.5v-3.5c0-0.8-0.3-1.5-0.9-2v-5.1c0,0,1.1-8-9.8-8s-9.8,8-9.8,8v5.1c-0.5,0.5-0.9,1.2-0.9,2v3.5
	c0,0.9,0.5,1.8,1.2,2.2c0.9,3.9,3.2,6.6,3.2,6.6v3.2c0,1.2-0.6,2.3-1.7,2.8l-7.9,4.3c-0.3,0.1-0.5,0.3-0.8,0.5
	c-5.1-4.5-8.3-11.1-8.3-18.5c0-13.7,11.1-24.8,24.8-24.8c13.7,0,24.8,11.1,24.8,24.8C51.3,33.9,48,40.5,42.9,45z"/>
</svg>
