<svg xmlns="http://www.w3.org/2000/svg" xmlns:xlink="http://www.w3.org/1999/xlink" width="24" height="24" viewBox="0 0 24 24">
  <defs>
    <clipPath id="clip-path">
      <rect id="Rectangle_174" data-name="Rectangle 174" width="24" height="24" transform="translate(7042 10029)" fill="#fff"/>
    </clipPath>
    <clipPath id="clip-path-2">
      <rect id="Rectangle_173" data-name="Rectangle 173" width="17.62" height="18.406" transform="translate(0 0)" fill="none"/>
    </clipPath>
  </defs>
  <g id="Mask_Group_12" data-name="Mask Group 12" transform="translate(-7042 -10029)" clip-path="url(#clip-path)">
    <g id="Group_388" data-name="Group 388" transform="translate(7045 10032)">
      <g id="Group_387" data-name="Group 387" clip-path="url(#clip-path-2)">
        <path id="Path_202" data-name="Path 202" d="M17.382,11.43a.409.409,0,0,1,.2.222.482.482,0,0,1,.018.3,9.179,9.179,0,0,1-2.041,3.489.532.532,0,0,1-.26.148.408.408,0,0,1-.3-.037l-1.559-.928a7.083,7.083,0,0,1-2.264,1.3v1.818a.474.474,0,0,1-.092.28.409.409,0,0,1-.242.166,9.462,9.462,0,0,1-4.082,0,.416.416,0,0,1-.241-.166.482.482,0,0,1-.093-.28V15.92a7.1,7.1,0,0,1-2.263-1.3l-1.559.928a.409.409,0,0,1-.3.037.546.546,0,0,1-.26-.148A9.218,9.218,0,0,1,.014,11.949a.5.5,0,0,1,.019-.3.409.409,0,0,1,.2-.222L1.8,10.5a7.6,7.6,0,0,1,0-2.6L.237,6.977a.4.4,0,0,1-.2-.223.493.493,0,0,1-.019-.3A9.233,9.233,0,0,1,2.055,2.969a.554.554,0,0,1,.26-.148.414.414,0,0,1,.3.037l1.559.928a7.1,7.1,0,0,1,2.263-1.3V.669A.479.479,0,0,1,6.527.39.417.417,0,0,1,6.768.223a9.462,9.462,0,0,1,4.082,0,.41.41,0,0,1,.242.167.471.471,0,0,1,.092.279V2.487a7.083,7.083,0,0,1,2.264,1.3l1.559-.928a.413.413,0,0,1,.3-.037.54.54,0,0,1,.26.148A9.2,9.2,0,0,1,17.6,6.458a.478.478,0,0,1-.018.3.4.4,0,0,1-.2.223l-1.559.928a7.651,7.651,0,0,1,0,2.6ZM10.906,7.107a2.956,2.956,0,0,0-4.193,0,2.957,2.957,0,0,0,0,4.194,2.959,2.959,0,0,0,4.193,0,2.957,2.957,0,0,0,0-4.194" fill="#2d2d2d"/>
      </g>
    </g>
  </g>
</svg>
