<?xml version="1.0" encoding="UTF-8"?><svg id="Layer_1" xmlns="http://www.w3.org/2000/svg" viewBox="0 0 24 24"><defs><style>.cls-1{fill-rule:evenodd;}.cls-1,.cls-2{fill:none;}</style></defs><rect class="cls-2" width="24" height="24"/><path class="cls-2" d="m14,2H6c-1.1,0-2,.9-2,2v16c0,1.1.9,2,2,2h12c1.1,0,2-.9,2-2v-12l-6-6Zm4,18H6V4h7.17l4.83,4.83v11.17Z"/><g id="Layer_1-2"><path id="Path_306" class="cls-1" d="m13.38,16.46c-.05,0-.11-.03-.14-.07l-1.24-1.61-1.23,1.61c-.06.08-.17.09-.25.03-.05-.04-.08-.1-.07-.16l.22-1.44-1.75.91c-.09.04-.19.01-.24-.08-.03-.07-.02-.15.03-.2l1.22-1.2-.82-.23c-.09-.03-.15-.13-.12-.22.02-.06.06-.1.12-.12l.66-.18-1.34-.2c-.1-.02-.16-.11-.14-.2.01-.07.07-.13.13-.14l1.47-.29-.53-.52c-.07-.07-.07-.18,0-.25.04-.04.09-.05.14-.05l.43.04-1.6-2.62c-.05-.08-.03-.19.06-.24.07-.04.15-.03.21.02l2.17,1.93-.02-.68c0-.1.07-.18.17-.18.07,0,.13.03.16.09l.17.33.22-1.32c.02-.1.11-.16.2-.14.05,0,.1.04.12.09l.86,1.55.26-.51c.05-.09.15-.12.24-.07.06.03.09.09.09.16l-.03.68,2.17-1.93c.07-.06.19-.06.25.02.05.06.06.14.02.21l-1.61,2.62.43-.04c.1,0,.18.06.19.16,0,.05-.01.1-.05.14l-.53.52,1.47.29c.09.02.16.11.14.2-.01.07-.07.13-.15.14l-1.33.2.66.18c.09.03.15.12.12.22-.02.06-.06.11-.12.12l-.81.23,1.21,1.18c.07.06.08.17.02.25-.05.06-.14.08-.21.04l-1.75-.91.22,1.47c0,.1-.08.18-.18.18Z"/></g></svg>