<svg id="pageview_black_24dp" xmlns="http://www.w3.org/2000/svg" width="24" height="24" viewBox="0 0 24 24">
  <path id="Path_197" data-name="Path 197" d="M0,0H24V24H0Z" fill="none"/>
  <path id="Path_198" data-name="Path 198" d="M11.49,16a4.434,4.434,0,0,0,2.39-.7l2.44,2.44,1.42-1.42L15.3,13.89A4.492,4.492,0,1,0,11.49,16Zm.01-7A2.5,2.5,0,1,1,9,11.5,2.5,2.5,0,0,1,11.5,9ZM20,4H4A2.006,2.006,0,0,0,2,6V18a2.006,2.006,0,0,0,2,2H20a2.006,2.006,0,0,0,2-2V6A2.006,2.006,0,0,0,20,4Zm0,14H4V6H20Z" fill="#3b3b3b"/>
</svg>
